<svg xmlns="http://www.w3.org/2000/svg" width="30.57" height="20.26" viewBox="0 0 30.57 20.26"><title>CA</title><g id="Layer_2" data-name="Layer 2"><g id="misc."><path d="M23.45,15.09a3.35,3.35,0,0,1-2.8,1.59c-1.55,0-2.84-.71-2.84-2.38,0-2.48,3.62-3.35,6.39-3.52v.73A5.46,5.46,0,0,1,23.45,15.09Zm-4.72-9C19.15,5,20.27,4.53,21.8,4.53a2.61,2.61,0,0,1,2.83,2.79v.61c-6,.29-11.67,1.41-11.56,6.92.08,3.85,3.56,5.43,6,5.42a6.58,6.58,0,0,0,5.88-2.65,13.33,13.33,0,0,0,.26,2.27h5.39A9.13,9.13,0,0,1,30.2,17V7c0-2.43-.46-3.78-1.76-5S25.18.32,22.45.32A11,11,0,0,0,16.23,2,6.93,6.93,0,0,1,18.73,6.14Z" fill="#58676d"/><path d="M12.2,14.32v.5a5.19,5.19,0,0,0,1.93,3.92A9.94,9.94,0,0,1,9.26,20C3.44,20,0,15.85,0,10.18,0,4.27,3.55,0,9.61,0,14,0,17.61,2.33,18,6.89H12.71c0-1.73-1.22-2.66-2.93-2.66-2.73,0-3.58,1.93-3.58,5.48S7,15.42,9.8,15.42A2.69,2.69,0,0,0,12.2,14.32Z" fill="#58676d"/></g></g></svg>